PathFileType	4	(X/Y/Z)	 2.2Hzlow3min.trc
DataRate	CameraRate	NumFrames	NumMarkers	Units	OrigDataRate	OrigDataStartFrame	OrigNumFrames
200	200	8	35	m	200	126	1000
Frame#	Time	C7			LSH			RSH			MAN			RASI			LASI			HIPR			HIPL			RPSI			LPSI			COX			RTHI1			RTHI2			RTHI3			RTHI4			RSHA1			RSHA2			RSHA3			RSHA4			RHEEL			RMET5			RMET1			RTOE			LTHI1			LTHI2			LTHI3			LTHI4			LSHA1			LSHA2			LSHA3			LSHA4			LHEEL			LMET5			LMET1			LTOE			
		X1	Y1	Z1	X2	Y2	Z2	X3	Y3	Z3	X4	Y4	Z4	X5	Y5	Z5	X6	Y6	Z6	X7	Y7	Z7	X8	Y8	Z8	X9	Y9	Z9	X10	Y10	Z10	X11	Y11	Z11	X12	Y12	Z12	X13	Y13	Z13	X14	Y14	Z14	X15	Y15	Z15	X16	Y16	Z16	X17	Y17	Z17	X18	Y18	Z18	X19	Y19	Z19	X20	Y20	Z20	X21	Y21	Z21	X22	Y22	Z22	X23	Y23	Z23	X24	Y24	Z24	X25	Y25	Z25	X26	Y26	Z26	X27	Y27	Z27	X28	Y28	Z28	X29	Y29	Z29	X30	Y30	Z30	X31	Y31	Z31	X32	Y32	Z32	X33	Y33	Z33	X34	Y34	Z34	X35	Y35	Z35	
126	0.6300	-0.290976	1.607409	-0.548203	-0.252387	1.580287	-0.783338	-0.239208	1.577699	-0.346690	-0.154499	1.536658	-0.564497	-0.154729	1.080469	-0.444868	-0.161081	1.076276	-0.671918	-0.212517	1.144633	-0.393559	-0.238436	1.145141	-0.722642	-0.339874	1.113364	-0.493226	-0.345505	1.112488	-0.603762	-0.349219	1.116917	-0.547259	-0.219576	0.878609	-0.357658	-0.198993	0.823477	-0.344833	-0.137356	0.839334	-0.357260	-0.150342	0.897936	-0.371516	-0.303480	0.329072	-0.343638	-0.320514	0.290156	-0.354161	-0.262390	0.272478	-0.352113	-0.249946	0.310468	-0.346462	-0.422374	0.074832	-0.414497	-0.246816	0.024828	-0.331664	-0.199255	0.042142	-0.423869	-0.166183	0.030663	-0.421405	-0.228323	0.827773	-0.763396	-0.201817	0.773152	-0.775099	-0.140832	0.796417	-0.774684	-0.159675	0.851813	-0.763637	-0.324473	0.313403	-0.765371	-0.341102	0.277590	-0.757482	-0.282227	0.255549	-0.762149	-0.272817	0.298648	-0.771041	-0.436282	0.077392	-0.695211	-0.266251	0.026068	-0.791410	-0.216701	0.042226	-0.715099	-0.181476	0.030259	-0.719597	
127	0.6350	-0.291257	1.611546	-0.548355	-0.252681	1.584823	-0.783329	-0.239607	1.582333	-0.346847	-0.154747	1.541103	-0.564538	-0.153555	1.084867	-0.444887	-0.159977	1.080440	-0.671778	-0.211154	1.149498	-0.393685	-0.237417	1.149618	-0.722770	-0.338667	1.117658	-0.493079	-0.344365	1.116524	-0.603771	-0.348125	1.121060	-0.547183	-0.219396	0.882560	-0.357847	-0.199243	0.827252	-0.345118	-0.137489	0.842661	-0.357595	-0.150028	0.901381	-0.371730	-0.305080	0.331728	-0.344042	-0.321764	0.292727	-0.354412	-0.263564	0.275365	-0.352191	-0.251336	0.313353	-0.346403	-0.421883	0.077183	-0.414365	-0.246838	0.024957	-0.331943	-0.199264	0.042147	-0.423880	-0.166260	0.030655	-0.421421	-0.228553	0.831850	-0.762926	-0.202479	0.776997	-0.774498	-0.141314	0.799730	-0.773951	-0.159710	0.855308	-0.763020	-0.325998	0.315613	-0.765066	-0.342382	0.279678	-0.757267	-0.283373	0.258011	-0.762010	-0.274248	0.301214	-0.770815	-0.435899	0.079190	-0.695696	-0.266119	0.026138	-0.791278	-0.216648	0.042203	-0.715096	-0.181500	0.030242	-0.719507	
128	0.6400	-0.291550	1.615787	-0.548515	-0.252960	1.589469	-0.783318	-0.240001	1.587093	-0.347024	-0.155038	1.545672	-0.564591	-0.152372	1.089373	-0.444902	-0.158897	1.084744	-0.671631	-0.209804	1.154456	-0.393811	-0.236450	1.154163	-0.722909	-0.337456	1.122080	-0.492906	-0.343184	1.121046	-0.603765	-0.347044	1.125351	-0.547065	-0.219214	0.886638	-0.358007	-0.199485	0.831168	-0.345369	-0.137613	0.846108	-0.357883	-0.149709	0.904956	-0.371906	-0.306620	0.334531	-0.344415	-0.322948	0.295504	-0.354628	-0.264640	0.278435	-0.352172	-0.252655	0.316388	-0.346239	-0.421267	0.079735	-0.414202	-0.246846	0.025105	-0.332231	-0.199262	0.042155	-0.423879	-0.166347	0.030649	-0.421432	-0.228726	0.836098	-0.762514	-0.203080	0.781022	-0.773948	-0.141740	0.803218	-0.773205	-0.159691	0.858971	-0.762390	-0.327477	0.317992	-0.764840	-0.343611	0.281933	-0.757129	-0.284468	0.260639	-0.761937	-0.275629	0.303947	-0.770662	-0.435428	0.081220	-0.696236	-0.265972	0.026207	-0.791148	-0.216583	0.042184	-0.715123	-0.181523	0.030217	-0.719413	
129	0.6450	-0.291853	1.620119	-0.548685	-0.253225	1.594195	-0.783308	-0.240391	1.591957	-0.347224	-0.155371	1.550329	-0.564651	-0.151187	1.093963	-0.444912	-0.157856	1.089168	-0.671499	-0.208469	1.159473	-0.393928	-0.235563	1.158698	-0.723031	-0.336254	1.126614	-0.492696	-0.342107	1.125526	-0.603633	-0.345973	1.129762	-0.546921	-0.219031	0.890808	-0.358137	-0.199712	0.835183	-0.345570	-0.137727	0.849668	-0.358121	-0.149391	0.908638	-0.372047	-0.308087	0.337468	-0.344757	-0.324054	0.298420	-0.354810	-0.265599	0.281655	-0.352048	-0.253912	0.319555	-0.346034	-0.420494	0.082488	-0.413965	-0.246840	0.025262	-0.332513	-0.199249	0.042165	-0.423858	-0.166442	0.030646	-0.421439	-0.228844	0.840490	-0.762172	-0.203610	0.785195	-0.773460	-0.142103	0.806863	-0.772461	-0.159614	0.862807	-0.761767	-0.328898	0.320527	-0.764696	-0.344775	0.284345	-0.757074	-0.285500	0.263435	-0.761944	-0.276956	0.306845	-0.770591	-0.434858	0.083472	-0.696839	-0.265810	0.026273	-0.791019	-0.216508	0.042167	-0.715181	-0.181546	0.030188	-0.719318	
130	0.6500	-0.292166	1.624519	-0.548868	-0.253480	1.598973	-0.783297	-0.240786	1.596895	-0.347445	-0.155739	1.555061	-0.564715	-0.150007	1.098605	-0.444913	-0.156849	1.093700	-0.671383	-0.207158	1.164539	-0.394036	-0.232949	1.162704	-0.721299	-0.335059	1.131239	-0.492463	-0.341015	1.130121	-0.603507	-0.344918	1.134272	-0.546754	-0.218845	0.895049	-0.358241	-0.199923	0.839276	-0.345728	-0.137833	0.853319	-0.358302	-0.149075	0.912402	-0.372150	-0.309443	0.340556	-0.345007	-0.325065	0.301460	-0.354945	-0.266478	0.284990	-0.351830	-0.255105	0.322890	-0.345797	-0.419455	0.085310	-0.413783	-0.246810	0.025420	-0.332788	-0.199229	0.042181	-0.423806	-0.166543	0.030652	-0.421436	-0.228910	0.845003	-0.761901	-0.204073	0.789499	-0.773035	-0.142409	0.810647	-0.771729	-0.159485	0.866758	-0.761145	-0.330256	0.323208	-0.764631	-0.345870	0.286903	-0.757095	-0.286464	0.266388	-0.762065	-0.278221	0.309894	-0.770611	-0.434183	0.085921	-0.697497	-0.265633	0.026341	-0.790890	-0.216420	0.042151	-0.715275	-0.181568	0.030157	-0.719223	
131	0.6550	-0.292493	1.628955	-0.549060	-0.253724	1.603776	-0.783288	-0.241189	1.601885	-0.347685	-0.156130	1.559821	-0.564780	-0.148840	1.103267	-0.444900	-0.155881	1.098297	-0.671271	-0.205874	1.169633	-0.394146	-0.231973	1.167376	-0.721219	-0.333882	1.135925	-0.492218	-0.339931	1.134684	-0.603481	-0.343881	1.138853	-0.546572	-0.218663	0.899340	-0.358309	-0.200124	0.843432	-0.345856	-0.137935	0.857033	-0.358431	-0.148767	0.916226	-0.372212	-0.310684	0.343760	-0.345174	-0.325959	0.304587	-0.355003	-0.267276	0.288418	-0.351541	-0.256223	0.326361	-0.345518	-0.418199	0.088228	-0.413593	-0.246752	0.025587	-0.333053	-0.199199	0.042204	-0.423714	-0.166646	0.030668	-0.421417	-0.228928	0.849611	-0.761697	-0.204475	0.793911	-0.772677	-0.142664	0.814549	-0.771022	-0.159317	0.870816	-0.760547	-0.331541	0.326036	-0.764639	-0.346892	0.289596	-0.757188	-0.287360	0.269495	-0.762286	-0.279416	0.313082	-0.770715	-0.433411	0.088514	-0.698179	-0.265438	0.026418	-0.790764	-0.216323	0.042136	-0.715405	-0.181592	0.030126	-0.719131	
132	0.6600	-0.292833	1.633410	-0.549263	-0.253957	1.608583	-0.783278	-0.241595	1.606912	-0.347945	-0.156543	1.564596	-0.564846	-0.147716	1.107942	-0.444872	-0.154941	1.102928	-0.671162	-0.204619	1.174742	-0.394259	-0.231068	1.172070	-0.721032	-0.332726	1.140656	-0.491968	-0.338880	1.139253	-0.603300	-0.342865	1.143499	-0.546374	-0.218482	0.903656	-0.358344	-0.200321	0.847614	-0.345943	-0.138039	0.860804	-0.358500	-0.148474	0.920094	-0.372229	-0.311795	0.347043	-0.345245	-0.326735	0.307765	-0.355009	-0.267976	0.291935	-0.351185	-0.257268	0.329918	-0.345277	-0.416789	0.091170	-0.413427	-0.246664	0.025763	-0.333298	-0.199162	0.042234	-0.423575	-0.166750	0.030697	-0.421376	-0.228919	0.854292	-0.761555	-0.204831	0.798406	-0.772376	-0.142884	0.818541	-0.770350	-0.159136	0.874965	-0.759997	-0.332751	0.328988	-0.764704	-0.347839	0.292411	-0.757339	-0.288186	0.272726	-0.762592	-0.280542	0.316388	-0.770893	-0.432533	0.091246	-0.698897	-0.265223	0.026505	-0.790637	-0.216217	0.042119	-0.715568	-0.181619	0.030102	-0.719056	
133	0.6650	-0.293185	1.637868	-0.549477	-0.254183	1.613364	-0.783266	-0.242036	1.611923	-0.348223	-0.156975	1.569353	-0.564909	-0.146648	1.112611	-0.444821	-0.154031	1.107565	-0.671060	-0.203400	1.179854	-0.394373	-0.230112	1.176801	-0.720917	-0.331603	1.145405	-0.491714	-0.337874	1.143984	-0.603224	-0.341866	1.148185	-0.546177	-0.218309	0.907968	-0.358343	-0.200515	0.851785	-0.345994	-0.138146	0.864612	-0.358510	-0.148200	0.923981	-0.372192	-0.312760	0.350385	-0.345226	-0.327372	0.310957	-0.354930	-0.268579	0.295496	-0.350771	-0.258192	0.333572	-0.345008	-0.415298	0.094187	-0.413129	-0.246533	0.025941	-0.333528	-0.199115	0.042275	-0.423391	-0.166852	0.030742	-0.421308	-0.228901	0.859014	-0.761466	-0.205162	0.802948	-0.772126	-0.143091	0.822602	-0.769728	-0.158947	0.879181	-0.759504	-0.333885	0.332042	-0.764818	-0.348708	0.295322	-0.757536	-0.288937	0.276068	-0.763004	-0.281602	0.319803	-0.771153	-0.431556	0.094113	-0.699681	-0.264986	0.026610	-0.790507	-0.216104	0.042100	-0.715760	-0.181654	0.030095	-0.719006	
